# xmcd
#
# Track frame offsets: 
#        150
#        13778
#        26709
#        39356
#        51990
#        65965
#        79006
#        93394
#        107493
#        120872
#        135747
#        149319
#        164125
#        176914
#        189297
#        202445
#        217202
#        230656
#        245563
#        259665
#        274209
#        288142
#        302431
#
# Disc length: 4219 seconds
#
# Revision: 0
# Processed by: cddbd v1.5.2PL0 Copyright (c) Steve Scherf et al.
# Submitted via: ExactAudioCopy v1.3
#
DISCID=5f107917
DTITLE=Hazel Meyers - Complete Recorded Works Vol. 1 (1923-1924)
DYEAR=1996
DGENRE=Blues
TTITLE0=Wish I Had You (And I'm Gonna Get You Blues)
TTITLE1=Love Ain't Blind No More
TTITLE2=Graveyard Dream Blues
TTITLE3=Graveyard Dream Blues
TTITLE4=Low Down Papa
TTITLE5=Low Down Papa
TTITLE6=He's Never Gonna Throw Me Down
TTITLE7=Awful Moanin' Blues
TTITLE8=Mason-Dixon Blues
TTITLE9=Chicago Bound Blues
TTITLE10=Bleeding Heart Blues
TTITLE11=Down Hearted Blues
TTITLE12='Tain't a Doggone Thing but the Blues
TTITLE13=Plug Ugly (The Worst Lookin' Man in Town)
TTITLE14=Heart-Breakin' Joe
TTITLE15=Don't Mess with Me
TTITLE16=Don't Know and Don't Care Blues
TTITLE17=I'm Gonna Tear Your Playhouse Down
TTITLE18=Pipe Dream Blues
TTITLE19=Black Star Line
TTITLE20=Papa Don't Ask Mama Where She Was
TTITLE21=I'm Every Man's Mama
TTITLE22=You Better Build Love's Fire (Or Your Sweet Mama's Gone)
EXTD=
EXTT0=
EXTT1=
EXTT2=
EXTT3=
EXTT4=
EXTT5=
EXTT6=
EXTT7=
EXTT8=
EXTT9=
EXTT10=
EXTT11=
EXTT12=
EXTT13=
EXTT14=
EXTT15=
EXTT16=
EXTT17=
EXTT18=
EXTT19=
EXTT20=
EXTT21=
EXTT22=
PLAYORDER=
